<svg xmlns="http://www.w3.org/2000/svg" width="514.69" height="180.05" viewBox="0 0 514.69 180.05"><title>logo</title><g style="isolation:isolate"><g style="isolation:isolate"><path d="M171.49,79.29h-6l10.75,42.85,2.52,9.15H179l2.52-9.15,14.55-45h2.4l14.47,45,2.48,9.15h0.24l2.6-9.15,10.63-42.85h-6V77.13h12.35v2.16h-4l-14.31,56h-2.44L199.27,86.8,197.35,81h-0.24l-1.84,5.8-15.35,48.52h-2.44l-14.35-56h-4V77.13h12.39v2.16Z" transform="translate(0.08 -0.05)" fill="#828383"/></g><g style="isolation:isolate"><path d="M234.78,112.86q0-9.51,5.26-15.55a18.5,18.5,0,0,1,27.34,0q5.25,6,5.26,15.55v1.68q0,9.55-5.26,15.59a18.48,18.48,0,0,1-27.32,0q-5.28-6-5.28-15.59v-1.68Zm2.16,1.68a21.31,21.31,0,0,0,4.56,13.81,16,16,0,0,0,24.42,0,21.33,21.33,0,0,0,4.56-13.79v-1.68a21.22,21.22,0,0,0-4.6-13.69,15.82,15.82,0,0,0-24.38,0,21.33,21.33,0,0,0-4.56,13.69v1.68Z" transform="translate(0.08 -0.05)" fill="#828383"/></g><g style="isolation:isolate"><path d="M286.65,92.08l0.4,7.51v1.48a15.61,15.61,0,0,1,5.36-7.21,14.52,14.52,0,0,1,8.75-2.58,9.68,9.68,0,0,1,1.7.14q0.78,0.14,1.34.3L304,93.64l-2.8-.24a12.52,12.52,0,0,0-9.41,3.74A18.35,18.35,0,0,0,287,107v26.18h6.51v2.16H278.38v-2.16h6.51V94.24h-6.51V92.08h8.27Z" transform="translate(0.08 -0.05)" fill="#828383"/><path d="M308.59,75.13V73h8.67v38.09h5.08l17.19-16.59-0.08-.24h-4.76V92.08h12.83v2.16h-4.88l-17.87,17.55,19.54,21.38H349v2.16H336.21v-2.16h5l0.08-.2-18.15-19.74h-5.92v19.94h6.51v2.16H308.59v-2.16h6.51v-58h-6.51Z" transform="translate(0.08 -0.05)" fill="#828383"/></g><g style="isolation:isolate"><path d="M355.76,135.33v-2.16h6.51V79.29h-6.51V77.13H371v2.16h-6.51v53.88h27.7v-9.55h2.16v11.71H355.76Z" transform="translate(0.08 -0.05)" fill="#828383"/></g><g style="isolation:isolate"><path d="M433.89,135.33q-0.52-2.84-.7-4.26A24.32,24.32,0,0,1,433,128v-0.64a18.81,18.81,0,0,1-6.93,6.33,21.39,21.39,0,0,1-10.49,2.46q-6,0-9.45-3.26a11.18,11.18,0,0,1-3.46-8.53q0-5.83,5.32-9.51t14.27-3.68H433v-6.31a10.58,10.58,0,0,0-3.46-8.41q-3.46-3-9.73-3a24.82,24.82,0,0,0-7.69,1.16,18.76,18.76,0,0,0-6.1,3.2l0,6.91h-2.16l0-8.23a27.18,27.18,0,0,1,7.25-3.74,26.19,26.19,0,0,1,8.69-1.46q7,0,11.15,3.52t4.2,10.15v21.66q0,1.68.14,3.32a29.05,29.05,0,0,0,.46,3.24H441v2.16h-7.08ZM415.59,134a20,20,0,0,0,10.63-2.76,17.33,17.33,0,0,0,6.79-7.63V113.38H422.38q-8,0-12.75,3.1t-4.8,8.05a8.86,8.86,0,0,0,3,6.77A11,11,0,0,0,415.59,134Z" transform="translate(0.08 -0.05)" fill="#828383"/><path d="M453.63,92.08l0.4,7.51v1.48a15.61,15.61,0,0,1,5.36-7.21,14.52,14.52,0,0,1,8.75-2.58,9.68,9.68,0,0,1,1.7.14q0.78,0.14,1.34.3l-0.24,1.92-2.8-.24a12.52,12.52,0,0,0-9.41,3.74A18.35,18.35,0,0,0,454,107v26.18h6.51v2.16H445.36v-2.16h6.51V94.24h-6.51V92.08h8.27Z" transform="translate(0.08 -0.05)" fill="#828383"/></g><g style="isolation:isolate"><path d="M474.2,75.13V73h8.67v38.09h5.08l17.19-16.59-0.08-.24H500.3V92.08h12.83v2.16h-4.88l-17.87,17.55,19.54,21.38h4.68v2.16H501.82v-2.16h5l0.08-.2-18.15-19.74h-5.92v19.94h6.51v2.16H474.2v-2.16h6.51v-58H474.2Z" transform="translate(0.08 -0.05)" fill="#828383"/></g></g><path d="M123.9,78.3l-9.1,15,13,3.3V93.3C127.7,93.3,131,83.5,123.9,78.3Z" transform="translate(0.08 -0.05)" fill="#66cdee"/><path d="M135.2,97.1l-8.4-24.6h0c-0.1-.2-0.1-0.3-0.2-0.5a3.09,3.09,0,0,0-2.2-1.5l-34-5-19.9-41A2.8,2.8,0,0,0,68.8,23L3.9,0.2A3.1,3.1,0,0,0,.1,2,3.32,3.32,0,0,0,.2,4.4L40.3,87,9.1,176.1a2.93,2.93,0,0,0,1.8,3.8,3.55,3.55,0,0,0,1,.2,2.82,2.82,0,0,0,1.5-.4L52.5,157a3.07,3.07,0,0,0,1.5-2.9l-1.6-14.2,57.4-27.6a3.12,3.12,0,0,0,1.5-1.5l6.3-14.6,13.8,4.8a3.55,3.55,0,0,0,1,.2,3,3,0,0,0,3-3A4.25,4.25,0,0,0,135.2,97.1ZM17.5,170.4l24.6-70.1,5.7,52.5Zm34.3-36.9L47.2,91.2,100.7,110ZM45.9,84.3l-37-76,56.8,20,36.9,76Zm62.5,18L93.7,72.1l26,3.9ZM120,90.6l3.7-8.7,3.8,11.3Z" transform="translate(0.08 -0.05)" fill="#27bce7"/><polygon points="119.88 75.95 108.58 102.35 93.88 72.05 119.88 75.95" fill="#66cdee"/><polygon points="47.88 152.75 17.58 170.35 42.18 100.25 47.88 152.75" fill="#66cdee"/><polygon points="100.78 109.95 51.88 133.45 47.28 91.15 100.78 109.95" fill="#66cdee"/><polygon points="102.78 104.35 45.88 84.35 8.88 8.25 65.78 28.25 102.78 104.35" fill="#66cdee"/></svg>