<svg xmlns="http://www.w3.org/2000/svg" width="245.07" height="326" viewBox="0 0 245.07 326"><title>styled-mark</title><path d="M407.91,374.74l-16.54,27.17L415,407.81v-5.91S420.91,384.19,407.91,374.74Z" transform="translate(-183.77 -233)" fill="#27bce7"/><path d="M428.56,408.83l-15.07-44.54h0a5.3,5.3,0,0,0-.4-0.92,5.41,5.41,0,0,0-4-2.73l-61.49-9.09-36-74.22a5.52,5.52,0,0,0-3.09-2.76L191,233.31a5.45,5.45,0,0,0-6.71,7.52l72.61,149.51L200.24,551.75a5.45,5.45,0,0,0,5.14,7.25,5.57,5.57,0,0,0,2.74-.73l70.75-41.13a5.45,5.45,0,0,0,2.68-5.3l-2.8-25.77,103.89-49.88a5.48,5.48,0,0,0,2.65-2.76L396.67,407l24.92,8.75a5.33,5.33,0,0,0,1.81.31A5.45,5.45,0,0,0,428.56,408.83ZM215.42,541.41L260,414.47l10.32,95Zm62.08-66.83L269.17,398l96.9,34Zm-10.76-89L199.9,248l102.87,36.13,66.84,137.63ZM380,418.17l-26.6-54.76,47.13,7Zm21-21.25,6.74-15.67,6.92,20.48Z" transform="translate(-183.77 -233)" fill="#66cdee"/><polygon points="216.89 137.57 196.34 185.41 169.7 130.58 216.89 137.57" fill="#27bce7"/><polygon points="86.56 276.5 31.65 308.41 76.24 181.47 86.56 276.5" fill="#27bce7"/><polygon points="182.31 199.05 93.73 241.58 85.41 165.01 182.31 199.05" fill="#27bce7"/><polygon points="185.94 188.99 82.92 152.8 15.99 14.98 119 51.16 185.94 188.99" fill="#27bce7"/><path d="M268.64,385.59l0.51,0.93-3.09-1.08-20.78-42.79-46-94.7L302,284C297.38,284.42,217.44,292.7,268.64,385.59Z" transform="translate(-183.77 -233)" fill="#0673b3" opacity="0.26"/><path d="M363.27,430.88c-13-4.09-90-25.78-87.28,35.32l-3.77-34.71-3.68-33.89Z" transform="translate(-183.77 -233)" fill="#0673b3" opacity="0.26"/><path d="M269.56,507.7l-0.07,1.15S250,450.71,215.17,540.51l-0.26.15,11.17-31.81L259.39,414l9.94,91.55Z" transform="translate(-183.77 -233)" fill="#0673b3" opacity="0.26"/><path d="M399.55,370.29s-38.22-6.8-20.42,47.54l-8.87-18.26-17.64-36.32,46.17,6.84,0.74,0.11A0.53,0.53,0,0,1,399.55,370.29Z" transform="translate(-183.77 -233)" fill="#0673b3" opacity="0.26"/></svg>