<svg xmlns="http://www.w3.org/2000/svg" width="135.48" height="180.05" viewBox="0 0 135.48 180.05"><title>worklark-mark</title><path d="M362.9,384.3l-9.1,15,13,3.3v-3.3C366.7,399.3,370,389.5,362.9,384.3Z" transform="translate(-238.92 -306.05)" fill="#68cded"/><path d="M374.2,403.1l-8.4-24.6h0c-0.1-.2-0.1-0.3-0.2-0.5a3.09,3.09,0,0,0-2.2-1.5l-34-5-19.9-41a2.8,2.8,0,0,0-1.7-1.5l-64.9-22.8a3.1,3.1,0,0,0-3.8,1.8,3.32,3.32,0,0,0,.1,2.4L279.3,393l-31.2,89.1a2.93,2.93,0,0,0,1.8,3.8,3.55,3.55,0,0,0,1,.2,2.82,2.82,0,0,0,1.5-.4L291.5,463a3.07,3.07,0,0,0,1.5-2.9l-1.6-14.2,57.4-27.6a3.12,3.12,0,0,0,1.5-1.5l6.3-14.6,13.8,4.8a3.55,3.55,0,0,0,1,.2,3,3,0,0,0,3-3A4.25,4.25,0,0,0,374.2,403.1ZM256.5,476.4l24.6-70.1,5.7,52.5Zm34.3-36.9-4.6-42.3L339.7,416Zm-5.9-49.2-37-76,56.8,20,36.9,76Zm62.5,18-14.7-30.2,26,3.9ZM359,396.6l3.7-8.7,3.8,11.3Z" transform="translate(-238.92 -306.05)" fill="#2bbce6"/><polygon points="119.88 75.95 108.58 102.35 93.88 72.05 119.88 75.95" fill="#68cded"/><polygon points="47.88 152.75 17.58 170.35 42.18 100.25 47.88 152.75" fill="#68cded"/><polygon points="100.78 109.95 51.88 133.45 47.28 91.15 100.78 109.95" fill="#68cded"/><polygon points="102.78 104.35 45.88 84.35 8.88 8.25 65.78 28.25 102.78 104.35" fill="#68cded"/></svg>