<?xml version="1.0" encoding="utf-8"?>
<!-- Generator: Adobe Illustrator 22.0.1, SVG Export Plug-In . SVG Version: 6.00 Build 0)  -->
<svg version="1.1" id="Layer_1" xmlns="http://www.w3.org/2000/svg" xmlns:xlink="http://www.w3.org/1999/xlink" x="0px" y="0px"
	 viewBox="0 0 70 64" style="enable-background:new 0 0 70 64;" xml:space="preserve">
<style type="text/css">
	.st0{fill:#231F20;}
	.st1{fill:#007BB5;}
	.st2{fill:#FFFFFF;}
</style>
<g>
	<path class="st0" d="M66.4,51.1c0.5-0.1,0.8-0.3,0.8-0.8c0-0.6-0.4-0.9-1.1-0.9H65v3.1h0.4v-1.3h0.5l0,0l0.8,1.3h0.5L66.4,51.1
		L66.4,51.1z M65.9,50.8h-0.5v-1H66c0.3,0,0.7,0.1,0.7,0.5C66.8,50.8,66.4,50.8,65.9,50.8z"/>
	<path class="st0" d="M66,48.1c-1.6,0-2.9,1.3-2.9,2.9c0,1.6,1.3,2.9,2.9,2.9c1.6,0,2.9-1.3,2.9-2.9C68.9,49.3,67.6,48.1,66,48.1z
		 M66,53.5c-1.4,0-2.5-1.1-2.5-2.5c0-1.4,1.1-2.5,2.5-2.5c1.4,0,2.5,1.1,2.5,2.5C68.4,52.4,67.4,53.5,66,53.5z"/>
</g>
<g>
	<path class="st1" d="M56.6,2H5.4C3,2,1,3.9,1,6.3v51.3C1,60.1,3,62,5.4,62h51.1c2.4,0,4.4-1.9,4.4-4.3V6.3C61,3.9,59,2,56.6,2z"/>
	<path class="st2" d="M9.9,24.5h8.9v28.6H9.9V24.5z M14.3,10.3c2.8,0,5.2,2.3,5.2,5.2c0,2.8-2.3,5.2-5.2,5.2c-2.9,0-5.2-2.3-5.2-5.2
		C9.2,12.6,11.5,10.3,14.3,10.3"/>
	<path class="st2" d="M24.4,24.5h8.5v3.9H33c1.2-2.3,4.1-4.6,8.4-4.6c9,0,10.7,5.9,10.7,13.6v15.7h-8.9V39.2c0-3.3-0.1-7.6-4.6-7.6
		c-4.6,0-5.3,3.6-5.3,7.4v14.2h-8.9V24.5z"/>
</g>
</svg>
