<?xml version="1.0" standalone="no"?>
<!DOCTYPE svg PUBLIC "-//W3C//DTD SVG 20010904//EN"
 "http://www.w3.org/TR/2001/REC-SVG-20010904/DTD/svg10.dtd">
<svg version="1.0" xmlns="http://www.w3.org/2000/svg"
 width="792.000000pt" height="792.000000pt" viewBox="0 0 792.000000 792.000000"
 preserveAspectRatio="xMidYMid meet">
<metadata>
Created by potrace 1.11, written by Peter Selinger 2001-2013
</metadata>
<g transform="translate(0.000000,792.000000) scale(0.100000,-0.100000)"
fill="#000000" stroke="none">
<path d="M1054 7901 c-46 -28 -64 -60 -64 -109 0 -46 1 -49 200 -457 56 -115
135 -277 175 -360 73 -152 173 -357 337 -695 130 -266 250 -513 333 -685 40
-82 112 -231 160 -330 48 -99 122 -252 165 -340 43 -88 122 -252 177 -365 55
-113 129 -263 163 -335 l63 -130 -31 -90 c-17 -49 -95 -270 -172 -490 -78
-220 -152 -431 -165 -470 -13 -38 -76 -218 -140 -400 -64 -181 -123 -348 -130
-370 -16 -50 -63 -185 -210 -600 -64 -181 -118 -337 -120 -345 -2 -8 -22 -67
-45 -130 -244 -684 -364 -1040 -364 -1075 1 -50 25 -88 69 -109 46 -22 84 -20
136 7 24 12 244 139 489 281 429 250 722 420 785 456 17 10 71 41 120 70 50
29 106 62 125 72 260 148 265 153 254 273 -10 116 -18 188 -29 265 -2 14 -6
56 -10 93 -3 37 -8 78 -10 89 -3 12 -7 50 -10 84 l-5 62 43 20 c23 11 128 62
232 112 105 51 226 109 270 130 44 21 152 73 240 115 88 42 205 99 260 125 55
26 170 81 255 123 85 41 207 99 270 130 63 30 183 87 265 127 83 40 204 98
270 130 374 179 455 221 469 242 8 13 58 124 111 248 53 124 100 234 105 245
5 11 25 54 44 96 l34 77 144 -50 c478 -167 493 -171 533 -164 47 9 91 52 100
98 8 43 -3 84 -100 363 -42 121 -97 281 -122 355 -118 351 -165 476 -184 496
-21 22 -72 38 -159 49 -59 8 -99 14 -130 20 -14 3 -43 8 -65 10 -22 3 -53 7
-70 9 -16 3 -95 14 -175 26 -80 11 -156 22 -170 25 -14 2 -45 7 -70 10 -39 5
-112 16 -200 30 -14 2 -61 9 -105 15 -44 6 -91 13 -105 15 -14 3 -59 9 -100
15 -41 6 -92 13 -113 16 -21 3 -46 7 -55 9 -9 2 -25 4 -34 4 -12 1 -35 38 -74
119 -31 64 -99 205 -152 312 -52 107 -127 263 -167 345 -112 230 -223 460
-330 680 -53 110 -114 236 -135 280 -44 94 -71 123 -137 146 -26 10 -100 35
-163 57 -63 22 -180 64 -260 92 -80 29 -163 58 -185 66 -66 22 -170 59 -355
124 -96 34 -218 77 -270 95 -52 18 -162 56 -245 85 -82 28 -159 56 -170 61
-11 5 -78 29 -150 53 -71 24 -164 56 -205 71 -605 214 -823 288 -860 292 -33
3 -53 -1 -76 -16z"/>
</g>
</svg>
